<svg width="89" height="86" viewBox="0 0 89 86" fill="none" xmlns="http://www.w3.org/2000/svg">
<path d="M73.5877 74.4469L73.6171 67.3858C73.6327 63.6404 72.0979 60.042 69.3505 57.3821C66.6031 54.7222 62.8681 53.2188 58.9671 53.2025L29.5496 53.0802C25.6486 53.064 21.9012 54.5363 19.1318 57.1732C16.3623 59.8101 14.7977 63.3957 14.7822 67.1411L14.7528 74.2022M59.0846 24.9584C59.0521 32.7578 52.4405 39.0531 44.3171 39.0193C36.1937 38.9855 29.6347 32.6354 29.6671 24.836C29.6995 17.0366 36.3112 10.7413 44.4346 10.7751C52.558 10.8089 59.117 17.159 59.0846 24.9584Z" stroke="#1E1E1E" stroke-width="4" stroke-linecap="round" stroke-linejoin="round"/>
</svg>
