<svg width="89" height="88" viewBox="0 0 89 88" fill="none" xmlns="http://www.w3.org/2000/svg">
<path d="M73.5878 76.9563L73.6172 69.6572C73.6328 65.7856 72.098 62.0658 69.3506 59.3163C66.6032 56.5668 62.8682 55.0127 58.9672 54.9959L29.5497 54.8694C25.6487 54.8526 21.9013 56.3746 19.1319 59.1004C16.3625 61.8262 14.7978 65.5326 14.7823 69.4043L14.7529 76.7033M59.0847 25.7997C59.0522 33.862 52.4406 40.3695 44.3172 40.3345C36.1938 40.2996 29.6348 33.7355 29.6672 25.6732C29.6997 17.6109 36.3113 11.1034 44.4347 11.1383C52.5581 11.1732 59.1171 17.7373 59.0847 25.7997Z" stroke="#1E1E1E" stroke-width="4" stroke-linecap="round" stroke-linejoin="round"/>
</svg>
