<svg width="89" height="86" viewBox="0 0 89 86" fill="none" xmlns="http://www.w3.org/2000/svg">
<path d="M73.5878 74.4469L73.6172 67.3858C73.6328 63.6404 72.098 60.042 69.3506 57.3821C66.6032 54.7222 62.8682 53.2188 58.9672 53.2025L29.5497 53.0802C25.6487 53.064 21.9013 54.5363 19.1319 57.1732C16.3625 59.8101 14.7978 63.3957 14.7823 67.1411L14.7529 74.2022M59.0847 24.9584C59.0522 32.7578 52.4406 39.0531 44.3172 39.0193C36.1938 38.9855 29.6348 32.6354 29.6672 24.836C29.6997 17.0366 36.3113 10.7413 44.4347 10.7751C52.5581 10.8089 59.1171 17.159 59.0847 24.9584Z" stroke="#1E1E1E" stroke-width="4" stroke-linecap="round" stroke-linejoin="round"/>
</svg>
